<?xml version="1.0" encoding="UTF-8"?>
<svg xmlns="http://www.w3.org/2000/svg" xmlns:xlink="http://www.w3.org/1999/xlink" width="50px" height="26px" viewBox="0 0 49 26" version="1.1">
<g id="surface1">
<rect x="0" y="0" width="49" height="26" style="fill:rgb(69.803922%,13.333333%,20.392157%);fill-opacity:1;stroke:none;"/>
<path style="fill-rule:nonzero;fill:rgb(0%,0%,0%);fill-opacity:1;stroke-width:300;stroke-linecap:butt;stroke-linejoin:miter;stroke:rgb(100%,100%,100%);stroke-opacity:1;stroke-miterlimit:4;" d="M 0 450 L 7410 450 M 7410 1050 L 0 1050 M 0 1650 L 7410 1650 M 7410 2250 L 0 2250 M 0 2850 L 7410 2850 M 7410 3450 L 0 3450 " transform="matrix(0.00661269,0,0,0.00666667,0,0)"/>
<path style=" stroke:none;fill-rule:nonzero;fill:rgb(23.529412%,23.137255%,43.137255%);fill-opacity:1;" d="M 0 0 L 19.601562 0 L 19.601562 14 L 0 14 Z M 0 0 "/>
<path style=" stroke:none;fill-rule:nonzero;fill:rgb(100%,100%,100%);fill-opacity:1;" d="M 1.632812 0.601562 L 2.101562 2.046875 L 0.878906 1.152344 L 2.386719 1.152344 L 1.167969 2.046875 Z M 1.632812 0.601562 "/>
<path style=" stroke:none;fill-rule:nonzero;fill:rgb(100%,100%,100%);fill-opacity:1;" d="M 1.632812 3.398438 L 2.101562 4.847656 L 0.878906 3.953125 L 2.386719 3.953125 L 1.167969 4.847656 Z M 1.632812 3.398438 "/>
<path style=" stroke:none;fill-rule:nonzero;fill:rgb(100%,100%,100%);fill-opacity:1;" d="M 1.632812 6.199219 L 2.101562 7.648438 L 0.878906 6.753906 L 2.386719 6.753906 L 1.167969 7.648438 Z M 1.632812 6.199219 "/>
<path style=" stroke:none;fill-rule:nonzero;fill:rgb(100%,100%,100%);fill-opacity:1;" d="M 1.632812 9 L 2.101562 10.445312 L 0.878906 9.554688 L 2.386719 9.554688 L 1.167969 10.445312 Z M 1.632812 9 "/>
<path style=" stroke:none;fill-rule:nonzero;fill:rgb(100%,100%,100%);fill-opacity:1;" d="M 1.632812 11.800781 L 2.101562 13.246094 L 0.878906 12.351562 L 2.386719 12.351562 L 1.167969 13.246094 Z M 1.632812 11.800781 "/>
<path style=" stroke:none;fill-rule:nonzero;fill:rgb(100%,100%,100%);fill-opacity:1;" d="M 3.265625 2 L 3.734375 3.445312 L 2.511719 2.554688 L 4.019531 2.554688 L 2.800781 3.445312 Z M 3.265625 2 "/>
<path style=" stroke:none;fill-rule:nonzero;fill:rgb(100%,100%,100%);fill-opacity:1;" d="M 3.265625 4.800781 L 3.734375 6.246094 L 2.511719 5.351562 L 4.019531 5.351562 L 2.800781 6.246094 Z M 3.265625 4.800781 "/>
<path style=" stroke:none;fill-rule:nonzero;fill:rgb(100%,100%,100%);fill-opacity:1;" d="M 3.265625 7.601562 L 3.734375 9.046875 L 2.511719 8.152344 L 4.019531 8.152344 L 2.800781 9.046875 Z M 3.265625 7.601562 "/>
<path style=" stroke:none;fill-rule:nonzero;fill:rgb(100%,100%,100%);fill-opacity:1;" d="M 3.265625 10.398438 L 3.734375 11.847656 L 2.511719 10.953125 L 4.019531 10.953125 L 2.800781 11.847656 Z M 3.265625 10.398438 "/>
<path style=" stroke:none;fill-rule:nonzero;fill:rgb(100%,100%,100%);fill-opacity:1;" d="M 4.898438 0.601562 L 5.367188 2.046875 L 4.144531 1.152344 L 5.65625 1.152344 L 4.433594 2.046875 Z M 4.898438 0.601562 "/>
<path style=" stroke:none;fill-rule:nonzero;fill:rgb(100%,100%,100%);fill-opacity:1;" d="M 4.898438 3.398438 L 5.367188 4.847656 L 4.144531 3.953125 L 5.65625 3.953125 L 4.433594 4.847656 Z M 4.898438 3.398438 "/>
<path style=" stroke:none;fill-rule:nonzero;fill:rgb(100%,100%,100%);fill-opacity:1;" d="M 4.898438 6.199219 L 5.367188 7.648438 L 4.144531 6.753906 L 5.65625 6.753906 L 4.433594 7.648438 Z M 4.898438 6.199219 "/>
<path style=" stroke:none;fill-rule:nonzero;fill:rgb(100%,100%,100%);fill-opacity:1;" d="M 4.898438 9 L 5.367188 10.445312 L 4.144531 9.554688 L 5.65625 9.554688 L 4.433594 10.445312 Z M 4.898438 9 "/>
<path style=" stroke:none;fill-rule:nonzero;fill:rgb(100%,100%,100%);fill-opacity:1;" d="M 4.898438 11.800781 L 5.367188 13.246094 L 4.144531 12.351562 L 5.65625 12.351562 L 4.433594 13.246094 Z M 4.898438 11.800781 "/>
<path style=" stroke:none;fill-rule:nonzero;fill:rgb(100%,100%,100%);fill-opacity:1;" d="M 6.535156 2 L 7 3.445312 L 5.777344 2.554688 L 7.289062 2.554688 L 6.066406 3.445312 Z M 6.535156 2 "/>
<path style=" stroke:none;fill-rule:nonzero;fill:rgb(100%,100%,100%);fill-opacity:1;" d="M 6.535156 4.800781 L 7 6.246094 L 5.777344 5.351562 L 7.289062 5.351562 L 6.066406 6.246094 Z M 6.535156 4.800781 "/>
<path style=" stroke:none;fill-rule:nonzero;fill:rgb(100%,100%,100%);fill-opacity:1;" d="M 6.535156 7.601562 L 7 9.046875 L 5.777344 8.152344 L 7.289062 8.152344 L 6.066406 9.046875 Z M 6.535156 7.601562 "/>
<path style=" stroke:none;fill-rule:nonzero;fill:rgb(100%,100%,100%);fill-opacity:1;" d="M 6.535156 10.398438 L 7 11.847656 L 5.777344 10.953125 L 7.289062 10.953125 L 6.066406 11.847656 Z M 6.535156 10.398438 "/>
<path style=" stroke:none;fill-rule:nonzero;fill:rgb(100%,100%,100%);fill-opacity:1;" d="M 8.167969 0.601562 L 8.632812 2.046875 L 7.410156 1.152344 L 8.921875 1.152344 L 7.699219 2.046875 Z M 8.167969 0.601562 "/>
<path style=" stroke:none;fill-rule:nonzero;fill:rgb(100%,100%,100%);fill-opacity:1;" d="M 8.167969 3.398438 L 8.632812 4.847656 L 7.410156 3.953125 L 8.921875 3.953125 L 7.699219 4.847656 Z M 8.167969 3.398438 "/>
<path style=" stroke:none;fill-rule:nonzero;fill:rgb(100%,100%,100%);fill-opacity:1;" d="M 8.167969 6.199219 L 8.632812 7.648438 L 7.410156 6.753906 L 8.921875 6.753906 L 7.699219 7.648438 Z M 8.167969 6.199219 "/>
<path style=" stroke:none;fill-rule:nonzero;fill:rgb(100%,100%,100%);fill-opacity:1;" d="M 8.167969 9 L 8.632812 10.445312 L 7.410156 9.554688 L 8.921875 9.554688 L 7.699219 10.445312 Z M 8.167969 9 "/>
<path style=" stroke:none;fill-rule:nonzero;fill:rgb(100%,100%,100%);fill-opacity:1;" d="M 8.167969 11.800781 L 8.632812 13.246094 L 7.410156 12.351562 L 8.921875 12.351562 L 7.699219 13.246094 Z M 8.167969 11.800781 "/>
<path style=" stroke:none;fill-rule:nonzero;fill:rgb(100%,100%,100%);fill-opacity:1;" d="M 9.800781 2 L 10.265625 3.445312 L 9.046875 2.554688 L 10.554688 2.554688 L 9.332031 3.445312 Z M 9.800781 2 "/>
<path style=" stroke:none;fill-rule:nonzero;fill:rgb(100%,100%,100%);fill-opacity:1;" d="M 9.800781 4.800781 L 10.265625 6.246094 L 9.046875 5.351562 L 10.554688 5.351562 L 9.332031 6.246094 Z M 9.800781 4.800781 "/>
<path style=" stroke:none;fill-rule:nonzero;fill:rgb(100%,100%,100%);fill-opacity:1;" d="M 9.800781 7.601562 L 10.265625 9.046875 L 9.046875 8.152344 L 10.554688 8.152344 L 9.332031 9.046875 Z M 9.800781 7.601562 "/>
<path style=" stroke:none;fill-rule:nonzero;fill:rgb(100%,100%,100%);fill-opacity:1;" d="M 9.800781 10.398438 L 10.265625 11.847656 L 9.046875 10.953125 L 10.554688 10.953125 L 9.332031 11.847656 Z M 9.800781 10.398438 "/>
<path style=" stroke:none;fill-rule:nonzero;fill:rgb(100%,100%,100%);fill-opacity:1;" d="M 11.433594 0.601562 L 11.898438 2.046875 L 10.679688 1.152344 L 12.1875 1.152344 L 10.96875 2.046875 Z M 11.433594 0.601562 "/>
<path style=" stroke:none;fill-rule:nonzero;fill:rgb(100%,100%,100%);fill-opacity:1;" d="M 11.433594 3.398438 L 11.898438 4.847656 L 10.679688 3.953125 L 12.1875 3.953125 L 10.96875 4.847656 Z M 11.433594 3.398438 "/>
<path style=" stroke:none;fill-rule:nonzero;fill:rgb(100%,100%,100%);fill-opacity:1;" d="M 11.433594 6.199219 L 11.898438 7.648438 L 10.679688 6.753906 L 12.1875 6.753906 L 10.96875 7.648438 Z M 11.433594 6.199219 "/>
<path style=" stroke:none;fill-rule:nonzero;fill:rgb(100%,100%,100%);fill-opacity:1;" d="M 11.433594 9 L 11.898438 10.445312 L 10.679688 9.554688 L 12.1875 9.554688 L 10.96875 10.445312 Z M 11.433594 9 "/>
<path style=" stroke:none;fill-rule:nonzero;fill:rgb(100%,100%,100%);fill-opacity:1;" d="M 11.433594 11.800781 L 11.898438 13.246094 L 10.679688 12.351562 L 12.1875 12.351562 L 10.96875 13.246094 Z M 11.433594 11.800781 "/>
<path style=" stroke:none;fill-rule:nonzero;fill:rgb(100%,100%,100%);fill-opacity:1;" d="M 13.066406 2 L 13.53125 3.445312 L 12.3125 2.554688 L 13.820312 2.554688 L 12.601562 3.445312 Z M 13.066406 2 "/>
<path style=" stroke:none;fill-rule:nonzero;fill:rgb(100%,100%,100%);fill-opacity:1;" d="M 13.066406 4.800781 L 13.53125 6.246094 L 12.3125 5.351562 L 13.820312 5.351562 L 12.601562 6.246094 Z M 13.066406 4.800781 "/>
<path style=" stroke:none;fill-rule:nonzero;fill:rgb(100%,100%,100%);fill-opacity:1;" d="M 13.066406 7.601562 L 13.53125 9.046875 L 12.3125 8.152344 L 13.820312 8.152344 L 12.601562 9.046875 Z M 13.066406 7.601562 "/>
<path style=" stroke:none;fill-rule:nonzero;fill:rgb(100%,100%,100%);fill-opacity:1;" d="M 13.066406 10.398438 L 13.53125 11.847656 L 12.3125 10.953125 L 13.820312 10.953125 L 12.601562 11.847656 Z M 13.066406 10.398438 "/>
<path style=" stroke:none;fill-rule:nonzero;fill:rgb(100%,100%,100%);fill-opacity:1;" d="M 14.699219 0.601562 L 15.167969 2.046875 L 13.945312 1.152344 L 15.453125 1.152344 L 14.234375 2.046875 Z M 14.699219 0.601562 "/>
<path style=" stroke:none;fill-rule:nonzero;fill:rgb(100%,100%,100%);fill-opacity:1;" d="M 14.699219 3.398438 L 15.167969 4.847656 L 13.945312 3.953125 L 15.453125 3.953125 L 14.234375 4.847656 Z M 14.699219 3.398438 "/>
<path style=" stroke:none;fill-rule:nonzero;fill:rgb(100%,100%,100%);fill-opacity:1;" d="M 14.699219 6.199219 L 15.167969 7.648438 L 13.945312 6.753906 L 15.453125 6.753906 L 14.234375 7.648438 Z M 14.699219 6.199219 "/>
<path style=" stroke:none;fill-rule:nonzero;fill:rgb(100%,100%,100%);fill-opacity:1;" d="M 14.699219 9 L 15.167969 10.445312 L 13.945312 9.554688 L 15.453125 9.554688 L 14.234375 10.445312 Z M 14.699219 9 "/>
<path style=" stroke:none;fill-rule:nonzero;fill:rgb(100%,100%,100%);fill-opacity:1;" d="M 14.699219 11.800781 L 15.167969 13.246094 L 13.945312 12.351562 L 15.453125 12.351562 L 14.234375 13.246094 Z M 14.699219 11.800781 "/>
<path style=" stroke:none;fill-rule:nonzero;fill:rgb(100%,100%,100%);fill-opacity:1;" d="M 16.332031 2 L 16.800781 3.445312 L 15.578125 2.554688 L 17.089844 2.554688 L 15.867188 3.445312 Z M 16.332031 2 "/>
<path style=" stroke:none;fill-rule:nonzero;fill:rgb(100%,100%,100%);fill-opacity:1;" d="M 16.332031 4.800781 L 16.800781 6.246094 L 15.578125 5.351562 L 17.089844 5.351562 L 15.867188 6.246094 Z M 16.332031 4.800781 "/>
<path style=" stroke:none;fill-rule:nonzero;fill:rgb(100%,100%,100%);fill-opacity:1;" d="M 16.332031 7.601562 L 16.800781 9.046875 L 15.578125 8.152344 L 17.089844 8.152344 L 15.867188 9.046875 Z M 16.332031 7.601562 "/>
<path style=" stroke:none;fill-rule:nonzero;fill:rgb(100%,100%,100%);fill-opacity:1;" d="M 16.332031 10.398438 L 16.800781 11.847656 L 15.578125 10.953125 L 17.089844 10.953125 L 15.867188 11.847656 Z M 16.332031 10.398438 "/>
<path style=" stroke:none;fill-rule:nonzero;fill:rgb(100%,100%,100%);fill-opacity:1;" d="M 17.964844 0.601562 L 18.433594 2.046875 L 17.210938 1.152344 L 18.722656 1.152344 L 17.5 2.046875 Z M 17.964844 0.601562 "/>
<path style=" stroke:none;fill-rule:nonzero;fill:rgb(100%,100%,100%);fill-opacity:1;" d="M 17.964844 3.398438 L 18.433594 4.847656 L 17.210938 3.953125 L 18.722656 3.953125 L 17.5 4.847656 Z M 17.964844 3.398438 "/>
<path style=" stroke:none;fill-rule:nonzero;fill:rgb(100%,100%,100%);fill-opacity:1;" d="M 17.964844 6.199219 L 18.433594 7.648438 L 17.210938 6.753906 L 18.722656 6.753906 L 17.5 7.648438 Z M 17.964844 6.199219 "/>
<path style=" stroke:none;fill-rule:nonzero;fill:rgb(100%,100%,100%);fill-opacity:1;" d="M 17.964844 9 L 18.433594 10.445312 L 17.210938 9.554688 L 18.722656 9.554688 L 17.5 10.445312 Z M 17.964844 9 "/>
<path style=" stroke:none;fill-rule:nonzero;fill:rgb(100%,100%,100%);fill-opacity:1;" d="M 17.964844 11.800781 L 18.433594 13.246094 L 17.210938 12.351562 L 18.722656 12.351562 L 17.5 13.246094 Z M 17.964844 11.800781 "/>
</g>
</svg>
